<svg class="diagram-root" style="background: #f5f6f6" xmlns="http://www.w3.org/2000/svg" xmlns:xlink="http://www.w3.org/1999/xlink"><style>.diagram-root { font-family: "Helvetica Neue", sans-serif; font-size: 12px; } .t { overflow: visible; } .t-bg { y: 40; fill: #fff;   } .th { fill: #005aa0;   } .tht { fill: #fff; font-size: 14px;  } .tf { fill: #323c46; overflow: visible; } .tf.pk { fill: #005aa0; font-weight: bold; } .tf.fk { font-weight: bold; } .ty { fill: #adb1b5; font-weight: normal; text-anchor: end; } .r { fill: transparent; stroke: #c3c3c3; stroke-width: 1; } .l { stroke: 1; } .i { fill: #c2c7ce; stroke: #c2c7ce; } .i.ix { fill: #afb3b6; stroke: #000; } .fa { fill: transparent; overflow: visible; } .fa .bg.hover { fill: #f7f7f7; } .c { cy: 12; r: 4; stroke: #d2d2dc; fill: #d2d2dc; } .hr { fill: transparent; stroke: #323c46; stroke-opacity: 0.035; stroke-width: 13; } .dc { stroke: #fa5a3c; fill: #fa5a3c; } .x { stroke: white; stroke-width: 1; } .hl .th { fill: #1b9bff; } .hl .tht {  } .fhl .bg { fill: #e7f4ff; } .fhls .bg {  } .r.hl { stroke: #1b9bff; } .dim { opacity: 0.25; }</style><g class="drawing-wrapper" transform="translate(-46.32888888888881, -18.891111111111115) scale(1,1)"><g class="rs"><path d="M 237.52 214.22 m -1, 0 a 1,1 0 1,0 2,0 a 1,1 0 1,0 -2,0 M 237.52 214.22 m -0.5, 0 a 0.5,0.5 0 1,0 1,0 a 0.5,0.5 0 1,0 -1,0  M237.52 214.22 L237.52 214.22 249.52 214.22 M 237.52 220.22 m -1, 0 a 1,1 0 1,0 2,0 a 1,1 0 1,0 -2,0 M 237.52 220.22 m -0.5, 0 a 0.5,0.5 0 1,0 1,0 a 0.5,0.5 0 1,0 -1,0  M237.52 220.22 L237.52 220.22 244.52 214.22 237.52 208.22 M 237.52 208.22 m -1, 0 a 1,1 0 1,0 2,0 a 1,1 0 1,0 -2,0 M 237.52 208.22 m -0.5, 0 a 0.5,0.5 0 1,0 1,0 a 0.5,0.5 0 1,0 -1,0  M249.52 214.22 Q 289.7 214.22, 329.87 160.06 T 410.22 105.89 M 422.22 105.89 m -1, 0 a 1,1 0 1,0 2,0 a 1,1 0 1,0 -2,0 M 422.22 105.89 m -0.5, 0 a 0.5,0.5 0 1,0 1,0 a 0.5,0.5 0 1,0 -1,0  M422.22 105.89 L422.22 105.89 410.22 105.89 M 422.22 111.89 m -1, 0 a 1,1 0 1,0 2,0 a 1,1 0 1,0 -2,0 M 422.22 111.89 m -0.5, 0 a 0.5,0.5 0 1,0 1,0 a 0.5,0.5 0 1,0 -1,0  M422.22 111.89 L422.22 111.89 415.22 105.89 422.22 99.89 M 422.22 99.89 m -1, 0 a 1,1 0 1,0 2,0 a 1,1 0 1,0 -2,0 M 422.22 99.89 m -0.5, 0 a 0.5,0.5 0 1,0 1,0 a 0.5,0.5 0 1,0 -1,0 " id="h1426950596" class="r"></path><path d="M 237.52 239.22 m -1, 0 a 1,1 0 1,0 2,0 a 1,1 0 1,0 -2,0 M 237.52 239.22 m -0.5, 0 a 0.5,0.5 0 1,0 1,0 a 0.5,0.5 0 1,0 -1,0  M237.52 239.22 L237.52 239.22 249.52 239.22 M 237.52 245.22 m -1, 0 a 1,1 0 1,0 2,0 a 1,1 0 1,0 -2,0 M 237.52 245.22 m -0.5, 0 a 0.5,0.5 0 1,0 1,0 a 0.5,0.5 0 1,0 -1,0  M237.52 245.22 L237.52 245.22 244.52 239.22 237.52 233.22 M 237.52 233.22 m -1, 0 a 1,1 0 1,0 2,0 a 1,1 0 1,0 -2,0 M 237.52 233.22 m -0.5, 0 a 0.5,0.5 0 1,0 1,0 a 0.5,0.5 0 1,0 -1,0  M249.52 239.22 Q 291.37 239.22, 333.21 294.78 T 416.89 350.34 M 428.89 350.34 m -1, 0 a 1,1 0 1,0 2,0 a 1,1 0 1,0 -2,0 M 428.89 350.34 m -0.5, 0 a 0.5,0.5 0 1,0 1,0 a 0.5,0.5 0 1,0 -1,0  M428.89 350.34 L428.89 350.34 416.89 350.34 M 428.89 356.34 m -1, 0 a 1,1 0 1,0 2,0 a 1,1 0 1,0 -2,0 M 428.89 356.34 m -0.5, 0 a 0.5,0.5 0 1,0 1,0 a 0.5,0.5 0 1,0 -1,0  M428.89 356.34 L428.89 356.34 421.89 350.34 428.89 344.34 M 428.89 344.34 m -1, 0 a 1,1 0 1,0 2,0 a 1,1 0 1,0 -2,0 M 428.89 344.34 m -0.5, 0 a 0.5,0.5 0 1,0 1,0 a 0.5,0.5 0 1,0 -1,0 " id="h3838779276" class="r"></path><path d="M 756.11 215.33 m -1, 0 a 1,1 0 1,0 2,0 a 1,1 0 1,0 -2,0 M 756.11 215.33 m -0.5, 0 a 0.5,0.5 0 1,0 1,0 a 0.5,0.5 0 1,0 -1,0  M756.11 215.33 L756.11 215.33 744.11 215.33 M 756.11 221.33 m -1, 0 a 1,1 0 1,0 2,0 a 1,1 0 1,0 -2,0 M 756.11 221.33 m -0.5, 0 a 0.5,0.5 0 1,0 1,0 a 0.5,0.5 0 1,0 -1,0  M756.11 221.33 L756.11 221.33 749.11 215.33 756.11 209.33 M 756.11 209.33 m -1, 0 a 1,1 0 1,0 2,0 a 1,1 0 1,0 -2,0 M 756.11 209.33 m -0.5, 0 a 0.5,0.5 0 1,0 1,0 a 0.5,0.5 0 1,0 -1,0  M744.11 215.33 Q 708.43 215.33, 672.75 160.61 T 601.38 105.89 M 589.38 105.89 m -1, 0 a 1,1 0 1,0 2,0 a 1,1 0 1,0 -2,0 M 589.38 105.89 m -0.5, 0 a 0.5,0.5 0 1,0 1,0 a 0.5,0.5 0 1,0 -1,0  M589.38 105.89 L589.38 105.89 601.38 105.89 M 589.38 111.89 m -1, 0 a 1,1 0 1,0 2,0 a 1,1 0 1,0 -2,0 M 589.38 111.89 m -0.5, 0 a 0.5,0.5 0 1,0 1,0 a 0.5,0.5 0 1,0 -1,0  M589.38 111.89 L589.38 111.89 596.38 105.89 589.38 99.89 M 589.38 99.89 m -1, 0 a 1,1 0 1,0 2,0 a 1,1 0 1,0 -2,0 M 589.38 99.89 m -0.5, 0 a 0.5,0.5 0 1,0 1,0 a 0.5,0.5 0 1,0 -1,0 " id="h3360571736" class="r"></path><path d="M 756.11 240.33 m -1, 0 a 1,1 0 1,0 2,0 a 1,1 0 1,0 -2,0 M 756.11 240.33 m -0.5, 0 a 0.5,0.5 0 1,0 1,0 a 0.5,0.5 0 1,0 -1,0  M756.11 240.33 L756.11 240.33 744.11 240.33 M 756.11 246.33 m -1, 0 a 1,1 0 1,0 2,0 a 1,1 0 1,0 -2,0 M 756.11 246.33 m -0.5, 0 a 0.5,0.5 0 1,0 1,0 a 0.5,0.5 0 1,0 -1,0  M756.11 246.33 L756.11 246.33 749.11 240.33 756.11 234.33 M 756.11 234.33 m -1, 0 a 1,1 0 1,0 2,0 a 1,1 0 1,0 -2,0 M 756.11 234.33 m -0.5, 0 a 0.5,0.5 0 1,0 1,0 a 0.5,0.5 0 1,0 -1,0  M744.11 240.33 Q 708.98 240.33, 673.85 295.33 T 603.59 350.34 M 591.59 350.34 m -1, 0 a 1,1 0 1,0 2,0 a 1,1 0 1,0 -2,0 M 591.59 350.34 m -0.5, 0 a 0.5,0.5 0 1,0 1,0 a 0.5,0.5 0 1,0 -1,0  M591.59 350.34 L591.59 350.34 603.59 350.34 M 591.59 356.34 m -1, 0 a 1,1 0 1,0 2,0 a 1,1 0 1,0 -2,0 M 591.59 356.34 m -0.5, 0 a 0.5,0.5 0 1,0 1,0 a 0.5,0.5 0 1,0 -1,0  M591.59 356.34 L591.59 356.34 598.59 350.34 591.59 344.34 M 591.59 344.34 m -1, 0 a 1,1 0 1,0 2,0 a 1,1 0 1,0 -2,0 M 591.59 344.34 m -0.5, 0 a 0.5,0.5 0 1,0 1,0 a 0.5,0.5 0 1,0 -1,0 " id="h369838041" class="r"></path><path d="M 711.12 449.23 m -1, 0 a 1,1 0 1,0 2,0 a 1,1 0 1,0 -2,0 M 711.12 449.23 m -0.5, 0 a 0.5,0.5 0 1,0 1,0 a 0.5,0.5 0 1,0 -1,0  M711.12 449.23 L711.12 449.23 699.12 449.23 M705.12 455.23 L705.12 455.23 705.12 443.23 M699.12 449.23 Q 675.24 449.23, 651.36 399.79 T 603.59 350.34 M 591.59 350.34 m -1, 0 a 1,1 0 1,0 2,0 a 1,1 0 1,0 -2,0 M 591.59 350.34 m -0.5, 0 a 0.5,0.5 0 1,0 1,0 a 0.5,0.5 0 1,0 -1,0  M591.59 350.34 L591.59 350.34 603.59 350.34 M597.59 356.34 L597.59 356.34 597.59 344.34" id="h221257298" class="r"></path><path d="M 324.36 470.33 m -1, 0 a 1,1 0 1,0 2,0 a 1,1 0 1,0 -2,0 M 324.36 470.33 m -0.5, 0 a 0.5,0.5 0 1,0 1,0 a 0.5,0.5 0 1,0 -1,0  M324.36 470.33 L324.36 470.33 336.36 470.33 M330.36 476.33 L330.36 476.33 330.36 464.33 M336.36 470.33 Q 356.5 470.33, 376.63 410.34 T 416.89 350.34 M 428.89 350.34 m -1, 0 a 1,1 0 1,0 2,0 a 1,1 0 1,0 -2,0 M 428.89 350.34 m -0.5, 0 a 0.5,0.5 0 1,0 1,0 a 0.5,0.5 0 1,0 -1,0  M428.89 350.34 L428.89 350.34 416.89 350.34 M422.89 356.34 L422.89 356.34 422.89 344.34" id="h1168633520" class="r"></path></g><g class="hrs"></g><g class="ts"><svg width="167.16" height="100" x="422.22" y="48.89" id="h3708248841" class="t"><rect height="40" width="167.16" class="th"></rect><text x="13" y="25" class="tht">Departments</text><rect height="60" width="167.16" class="t-bg"></rect><text x="13" y="61" class="tf pk">dept_no<tspan x="154.16" class="ty">VARCHAR</tspan></text><path d="M7,14A2,2 0 0,1 5,12A2,2 0 0,1 7,10A2,2 0 0,1 9,12A2,2 0 0,1 7,14M12.65,10C11.83,7.67 9.61,6 7, 6A6, 6 0 0, 0 1, 12A6, 6 0 0, 0 7, 18C9.61, 18 11.83, 16.33 12.65, 14H17V18H21V14H23V10H12.65Z" class="i pk" transform="translate(76.37484375, 48) scale(0.65)"></path><text x="13" y="86" class="tf">dept_name<tspan x="154.16" class="ty">VARCHAR</tspan></text></svg><svg width="169.19" height="175" x="68.33" y="132.22" id="h2137243272" class="t"><rect height="40" width="169.19" class="th"></rect><text x="13" y="25" class="tht">Employee_Department</text><rect height="135" width="169.19" class="t-bg"></rect><text x="13" y="61" class="tf pk">ID<tspan x="156.19" class="ty">INTEGER</tspan></text><path d="M7,14A2,2 0 0,1 5,12A2,2 0 0,1 7,10A2,2 0 0,1 9,12A2,2 0 0,1 7,14M12.65,10C11.83,7.67 9.61,6 7, 6A6, 6 0 0, 0 1, 12A6, 6 0 0, 0 7, 18C9.61, 18 11.83, 16.33 12.65, 14H17V18H21V14H23V10H12.65Z" class="i pk" transform="translate(82.852109375, 48) scale(0.65)"></path><text x="13" y="86" class="tf fk">dept_no<tspan x="156.19" class="ty">VARCHAR</tspan></text><text x="13" y="111" class="tf fk">emp_no<tspan x="156.19" class="ty">INTEGER</tspan></text><text x="13" y="136" class="tf">from_date<tspan x="156.19" class="ty">DATE</tspan></text><text x="13" y="161" class="tf">to_date<tspan x="156.19" class="ty">DATE</tspan></text></svg><svg width="162.19" height="175" x="756.11" y="133.33" id="h469467898" class="t"><rect height="40" width="162.19" class="th"></rect><text x="13" y="25" class="tht">Manager_Department</text><rect height="135" width="162.19" class="t-bg"></rect><text x="13" y="61" class="tf pk">ID<tspan x="149.19" class="ty">INTEGER</tspan></text><path d="M7,14A2,2 0 0,1 5,12A2,2 0 0,1 7,10A2,2 0 0,1 9,12A2,2 0 0,1 7,14M12.65,10C11.83,7.67 9.61,6 7, 6A6, 6 0 0, 0 1, 12A6, 6 0 0, 0 7, 18C9.61, 18 11.83, 16.33 12.65, 14H17V18H21V14H23V10H12.65Z" class="i pk" transform="translate(75.852109375, 48) scale(0.65)"></path><text x="13" y="86" class="tf fk">dept_no<tspan x="149.19" class="ty">VARCHAR</tspan></text><text x="13" y="111" class="tf fk">emp_no<tspan x="149.19" class="ty">INTEGER</tspan></text><text x="13" y="136" class="tf">from_date<tspan x="149.19" class="ty">DATE</tspan></text><text x="13" y="161" class="tf">to_date<tspan x="149.19" class="ty">DATE</tspan></text></svg><svg width="162.7" height="200" x="428.89" y="293.34" id="h3299212598" class="t"><rect height="40" width="162.7" class="th"></rect><text x="13" y="25" class="tht">Employees</text><rect height="160" width="162.7" class="t-bg"></rect><text x="13" y="61" class="tf pk">emp_no<tspan x="149.7" class="ty">INTEGER</tspan></text><path d="M7,14A2,2 0 0,1 5,12A2,2 0 0,1 7,10A2,2 0 0,1 9,12A2,2 0 0,1 7,14M12.65,10C11.83,7.67 9.61,6 7, 6A6, 6 0 0, 0 1, 12A6, 6 0 0, 0 7, 18C9.61, 18 11.83, 16.33 12.65, 14H17V18H21V14H23V10H12.65Z" class="i pk" transform="translate(76.36210937499999, 48) scale(0.65)"></path><text x="13" y="86" class="tf">birth_date<tspan x="149.7" class="ty">DATE</tspan></text><text x="13" y="111" class="tf">first_name<tspan x="149.7" class="ty">VARCHAR</tspan></text><text x="13" y="136" class="tf">last_name<tspan x="149.7" class="ty">VARCHAR</tspan></text><text x="13" y="161" class="tf">gender<tspan x="149.7" class="ty">VARCHAR</tspan></text><text x="13" y="186" class="tf">hire_date<tspan x="149.7" class="ty">DATE</tspan></text></svg><svg width="142.7" height="150" x="711.12" y="392.23" id="h3858243705" class="t"><rect height="40" width="142.7" class="th"></rect><text x="13" y="25" class="tht">Salaries</text><rect height="110" width="142.7" class="t-bg"></rect><text x="13" y="61" class="tf fk">emp_no<tspan x="129.7" class="ty">INTEGER</tspan></text><text x="13" y="86" class="tf">salary<tspan x="129.7" class="ty">INTEGER</tspan></text><text x="13" y="111" class="tf">from_date<tspan x="129.7" class="ty">DATE</tspan></text><text x="13" y="136" class="tf">to_date<tspan x="129.7" class="ty">DATE</tspan></text></svg><svg width="142.7" height="150" x="181.66" y="413.33" id="h3517680912" class="t"><rect height="40" width="142.7" class="th"></rect><text x="13" y="25" class="tht">Titles</text><rect height="110" width="142.7" class="t-bg"></rect><text x="13" y="61" class="tf fk">emp_no<tspan x="129.7" class="ty">INTEGER</tspan></text><text x="13" y="86" class="tf">title<tspan x="129.7" class="ty">VARCHAR</tspan></text><text x="13" y="111" class="tf">from_date<tspan x="129.7" class="ty">DATE</tspan></text><text x="13" y="136" class="tf">to_date<tspan x="129.7" class="ty">DATE</tspan></text></svg></g></g><text class="qdbd-link" x="10" y="20">www.quickdatabasediagrams.com</text></svg>